<svg viewBox="0 0 239.58 204.62" xmlns="http://www.w3.org/2000/svg"><path d="m154.28 159.09h5v4.4h-5z" fill="#1369e0"/><path d="m209.05 75.67c-.4-.1-.8-.13-1.19-.1-1.51.1-2.88 1.04-3.47 2.51l-10.69 26.55-1.88-2.66c-.81-1.15-2.15-1.78-3.54-1.69-.09 0-.19.02-.28.03-1.48.2-2.73 1.21-3.24 2.63l-4.21 11.76c-.13-.37-.27-.74-.42-1.11-1.82-4.33-4.92-7.4-8.5-8.41-.17-.05-.34-.09-.52-.13-.96-.2-1.86-.3-2.75-.3-.54 0-1.07.04-1.58.11-1.4-1.55-3.3-2.9-5.86-3.95-.64-.28-1.29-.52-1.94-.74.18-.21.35-.42.51-.65.49-.72.94-1.46 1.36-2.21.61.16 1.23.24 1.85.24 1.77 0 3.52-.63 4.9-1.86 5.25-4.65 8.37-8.86 9.55-12.87.32-1.07.38-2.21.2-3.31-.12-.71-.9-4.78-3.59-9.54 2.27-.92 3.97-2.92 4.47-5.39 2.27-11.33-2.16-20.1-12.15-24.07-2.38-.96-5.27-1.57-8.74-1.87 0-.28-.02-.56-.06-.84 8.88-3.65 12.66-9.74 14.23-13.67 1.21-3.03.29-6.49-2.26-8.52-1.34-1.07-2.97-1.6-4.6-1.6-1.47 0-2.94.44-4.21 1.32-2.82 1.96-6.05 2.25-7.72 2.25-1.11 0-1.85-.13-2.11-.19-.32-.13-.64-.25-.95-.37-.33-.4-.71-.76-1.14-1.09-2.34-1.8-4.62-3.32-6.86-4.56.06-.22.11-.45.16-.68.61-3.37-1.17-6.72-4.31-8.09-3.95-1.72-7.99-2.6-12-2.6-4.95 0-9.41 1.31-13.31 3.3-1.24-.86-2.72-1.32-4.21-1.32-.71 0-1.43.1-2.12.31-11.83 3.56-20.24 8.96-24.98 16.05-3.03 4.53-4.49 9.79-4.11 14.82.01.15.03.29.05.44.17 1.29.44 2.48.77 3.59-5.76 5.55-4.65 14.52-4.5 15.59.03.17.06.34.09.51-.01.04-.03.08-.04.13-.38 1.15-.94 1.9-1.13 2.13-2.27 1.96-2.96 4.97-1.98 7.82.69 2 2.26 3.49 4.17 4.25.32 9.67 4.28 11.71 4.28 11.71s-.07.2-.01.64c-7.41 6.97-6.65 15.39-6.65 15.39-.72 7.43.6 11.14 1.99 12.98.38 2.19 1.29 4.1 2.44 5.57.11.14.22.27.33.4.07.07.13.14.18.21-.55 1.53-.56 3.15-.11 4.64-.19-.04-.39-.07-.59-.09-.04 0-.07 0-.11 0-1.21-.05-2.37.46-3.15 1.35l-6.26-17.48c-.51-1.41-1.75-2.42-3.24-2.63-.09-.01-.19-.02-.28-.03-1.39-.09-2.73.54-3.54 1.69l-1.88 2.66-10.69-26.55c-.59-1.46-1.96-2.41-3.47-2.51-.39-.03-.79 0-1.19.1-1.94.46-3.24 2.27-3.07 4.26l4.48 51.19c.15 1.71 1.37 3.14 3.04 3.55.23.06.47.09.7.11 1.22.08 2.42-.41 3.24-1.32l4.07 20.84c.31 1.58 1.53 2.82 3.1 3.16.2.04.39.07.59.08 1.38.09 2.72-.54 3.53-1.68l.03-.05 2.17 21.53c.09.92.5 1.76 1.12 2.4 2.31-5.04 12.25-22.74 38.14-22.82 8.52.58 20.3 2.49 32.69 16.04 1.57-.66 3.12-1.35 4.64-2.09 2.31-1.51 5.17-3.2 8.46-4.7 2.05-1.3 4.05-2.67 5.98-4.13.83-.63 1.63-1.26 2.4-1.89l2.87 2.48c8.14-1.44 17.63-.63 27.69 5.32l1.22-12.13.03.05c.81 1.15 2.16 1.77 3.53 1.68.2-.01.39-.04.59-.08 1.57-.34 2.79-1.58 3.1-3.16l4.07-20.84c.82.91 2.02 1.4 3.24 1.32.23-.02.47-.05.7-.11 1.67-.41 2.9-1.84 3.05-3.55l4.48-51.19c.17-1.98-1.13-3.79-3.07-4.26z" fill="#1369e0"/><path d="m92.87 158.93-.7.6c.45-.28.92-.58 1.39-.89-.07-.07-.14-.14-.2-.21-.15.18-.31.35-.49.5z" fill="none"/><path d="m43.06 164.11c-4.36-5.98-11.32-9.85-19.16-9.85-.61 0-1.22.03-1.82.08 1.67-5.87 6.39-10.42 12.28-11.71.97-.21 1.97-.33 2.99-.35-.33-.96-.62-1.93-.88-2.91-2.74-10.48-.65-22.65 5.07-32.36l-.43-4.79c-8.12 11.03-10.75 25.02-7.57 37.58-7.28 1.67-13.02 7.55-14.61 15-10.37 2.25-18.26 11.38-18.89 22.47v.06c-.02.45-.04.9-.04 1.36 0 .4.23.7.54.85.01 0 .02.01.04.02.04.02.09.03.13.04.03 0 .05.02.08.02h.11.11c.03 0 .06-.01.09-.02.04 0 .08-.01.13-.02l1.06-.33c.08-.02.15-.06.22-.1.27-.17.44-.47.45-.8 0-.09 0-.18.01-.26 0-.27.02-.53.04-.79 0-.07 0-.13.01-.2.52-7.36 4.68-13.7 10.63-17.14 1.51-.87 3.14-1.56 4.86-2.03.97-.27 1.98-.46 3-.58.79-.09 1.58-.14 2.39-.14 6.74 0 12.74 3.28 16.58 8.37.25.33.68.47 1.07.34l1.05-.36c.6-.2.84-.94.47-1.45z" fill="#1369e0"/><g fill="#fff"><path d="m120.93 52.83s3.27-1.58 13.37 3.35c-4.43-.37-8.48-.1-11.64 2.55-.64-1.64-.86-1.97-1.15-2.88s-.6-1.97-.58-3.02z"/><path d="m122.98 59.72s.24 1.06-.34 2.15c1.53.22 3.9.7 5.08 1.47-.38-.78-1.49-3.05-4.74-3.61z"/><path d="m122.47 65.46s4.04 4.06 3.77 10.12c.98-1.66 1.93-7.95-2.2-12.24-.44.96-.78 1.63-1.56 2.12z"/><path d="m103.98 88.42s9.42 1.38 10.77 10.24c.66-.29 1.39-1.6 1.07-2.99.9 1.64 4.26 8.57 1.35 18.2 1.89-1.89 5.45-6.68 4.92-13.2 1.02.98 2.91 2.21 2.95 4.35.53-1.48 1.56-8.86-2.46-12.46 2.5 1.35 3.36 2.17 3.36 2.17-.98-1.56-7.13-7.34-14.64-8.73 0 0 .74 1.11.82 1.68-1.84-.94-6.85-3.94-10.29-3.24-1.97.61-2.62 2.79-2.25 3.69s1.54 1.3 3.07.82c.86-.33.9-.6 1.32-.52z"/><path d="m99.48 91.27s3.87-.13 4.69-.15c.84-.02 1.66.39 1.5 1.31-.18.68-.94 1.29-2.64 1.43-2.19.08-4.18-.23-4.71-1.37-.2-.47.21-1.19 1.17-1.22z"/><path d="m106.88 97.94s3.39 1.08 4.69-2.16c.79 1.23 6.83 6 1.34 17.61 0 0 .11-4.43-1.87-6.81-.3 4.51-1.04 10-4.48 14.8-3.24 4.22-14.43 7.38-16.15 11.19-.45-3.16.66-5.12 4.67-8.4 3.98-3.36 6.44-8.53 6.44-14.51-1.64 4.35-3.2 8.32-9.63 13.49-5.78 4.96-8.61 7.79-1.8 14.6-4.84-1.31-9.63-2.58-9.14-8.86.25-2.3 2.58-5.58 8.36-10.54 1.6-1.43 3.28-4.26 2.87-7.75-1.02 1.6-2.13 3.69-2.38 4.43-.61-1.89-2.01-5.58-2.66-7.54s-2.38-7.99 4.06-12.01c.7 1.68 1.97 3.24 4.8 2.66l.04 3.61s.66-1.23 1.52-3.98c.66-2.01 1.76-3.24 3.89-3.16 1.84.16 3.24.9 3.36 3.07.08 1.15 1.56 3.32 2.38 3.89-.2-3.12-.29-3.63-.29-3.63z"/><path d="m82.95 100.75s-.87 4.08 1.62 7.11c1.56 2.01 3.9 6.21-.88 9.15 1.03-2.46 1.57-4.08-1.64-7.65-1.17-1.5-2.04-4.44.9-8.61z"/><path d="m103.02 142.26c-.6-3.65-.55-6.27-2.68-8.56-.75.25-2.56.95-3.81 2.27.36 2.01.88 6.38-4.47 8.42 2.36 3.52 5.47 7.36 9.57 11.36 0 0 2.71-4.14 1.39-13.49z"/><path d="m93.07 43.24s-7.64-.95-8.95-10.63c-.25-3.28 0-16.07 23.86-23.25 0 0-1.39 6.11-6.15 7.91-4.8 1.68-8.98 2.71-11.97 9.39 3.4-3.2 4.67-5.17 10.82-7.13-.74 1.84-1.8 3.24-1.02 6.27 2.5-4.35 15.77-24.79 34.9-16.44-4.39.23-14.57.62-21.64 10.96 6.51-4.56 14.85-11.07 31.09 1.45-2.73-.44-5.73-1.61-9.68.83 4.78-.28 7.9-.67 13.63 1.67 2.34.95 10.25 1.58 16.69-2.89-1.22 3.06-5.06 10.18-19.24 11.79-3.67.67-16.13-1.78-23.69 9.18.39-2.95.89-6.59 2.15-8.64-3.26 4.47-4.24 5.85-5.04 6.7-1.06 1.1-2.13.82-2.89.56-.63-.1-2.01-.23-3.21-.07 1.46-1.85 3.34-5.31 5.69-9.66s4.22-6.76 8.43-9.11c-2.99 1.13-10.61 5.89-14.14 13.96-2.13 4.49-3.98 7.47-7.9 7.88-1.74.26-3.48-1.3-3.8-3.12s-.59-3.58-.18-5.62c-.86 1.63-1.9 6.34-.73 9.18-1.78-.05-8.7-.24-6.76-13.57-1.18 2.4-2.33 7.83-.28 12.41z"/><path d="m138.1 83.04c0 4.61-1.85 8.79-4.86 11.83-2.49-.96-4.82-2.24-6.93-3.8 3.39-3.69 5.46-8.62 5.46-14.04 0-2.98-.63-5.81-1.76-8.37 4.84 2.96 8.08 8.29 8.08 14.38z"/><path d="m156.95 83.82c0 4.27-1.31 8.24-3.55 11.53-2.96.99-6.13 1.52-9.42 1.52-2.49 0-4.92-.31-7.23-.89 3-3.35 4.82-7.77 4.82-12.62 0-8.56-5.68-15.79-13.47-18.14-.01-.03-.04-.06-.06-.08 2.57-1.16 5.42-1.81 8.43-1.81 11.31 0 20.48 9.17 20.48 20.48z"/></g><path d="m112.31 64.18c-.3.77-1.04 1.32-1.92 1.32-.52 0-.99-.19-1.35-.51 0 .96.78 1.74 1.74 1.74s1.74-.78 1.74-1.74c0-.3-.08-.57-.21-.82z" fill="#fede23"/><path d="m148.32 43.27c-9.33-1.84-12.27-.11-14.6.86-5.59 2.38-9.61 1.03-10.5.66 4.98-4.61 11.53-7.55 18.76-7.94 3.9.24 6.59 1.37 7.99 1.86-5.53-.46-9.1.43-10.86 1.55 4.66-.14 8.55 1.82 9.21 3z" fill="#fff"/><path d="m160.8 66.07s0 0-.02 0c-4.52-3.59-10.23-5.73-16.44-5.73-2.76 0-5.42.42-7.91 1.2 14.55.08 26.33 11.9 26.33 26.47 0 .28 0 .55-.02.83.02-.02.04-.04.06-.07-.01.46-.04.93-.09 1.39 1.7-1.5 6.26-5.68 7.36-9.43 0 0-1.48-8.74-9.27-14.65z" fill="#fff"/><path d="m163.33 47.35c-7.14-2.86-21.13-.94-27.13-.5s-14.37 0-14.37 0c.08.34-.15 1.21-.31 1.81-.17.6-.35 1.64-.59 2.62 7.85-4.62 18.86.51 20.23 1.41-1.34-.03-3.84.57-5.53 1.46h.02c2.09-.49 4.26-.75 6.5-.75 8.81 0 16.68 3.99 21.92 10.26-1.98-4.85-7.02-8.89-11.42-10.6 12.72.07 16.31 6.6 18.34 10.06 1.84-9.19-2.17-13.59-7.66-15.77z" fill="#fff"/><path d="m87.82 64.08c.3.77 1.04 1.32 1.92 1.32.52 0 .99-.19 1.35-.51 0 .96-.78 1.74-1.74 1.74s-1.74-.78-1.74-1.74c0-.3.08-.57.21-.82z" fill="#fede23"/><path d="m117.88 48.21c.37-2.25.56-2.99-1.46-3.24-2.88-.25-3.55.12-6.28 1.8-3.18 2.01-7.95 2.04-7.95 2.04-.72.05-1.41.06-2.09.03-.67.03-1.37.02-2.09-.03 0 0-4.77-.03-7.95-2.04-2.73-1.68-3.4-2.05-6.28-1.8-2.02.25-1.83.98-1.46 3.24.37 2.25 1.61 5.37-1.38 12.05 1.53 0 5.98.7 5.98.7s3.25 2.71 6.28 2.71c2.13 0 4.26-1.56 4.78-6.23.04-.74.75-.7.75.02s.07 2.85.07 2.85.26 1.55 1.29 1.73c1.03-.18 1.29-1.73 1.29-1.73s.07-2.13.07-2.85.71-.76.75-.02c.52 4.67 2.65 6.23 4.78 6.23 3.03 0 6.28-2.71 6.28-2.71s4.45-.7 5.98-.7c-2.99-6.68-1.76-9.8-1.38-12.05z" fill="#fff"/><path d="m119.64 64.42c-1.94 2.17-4.76 3.62-8.15 4.8s-7.13-.3-7.84-.98c-1.01-1.15-2.24-1.59-2.9-1.48-1.28.38-1.26 1.37-1.15 2.68.05 1.28-.52 2.38-.74 3.33-.03.82-.03 2.38-.41 4.13-.27 1.75-.25 3.91.71 4.46 1.31.68 3.91.3 5.17-.6 1.42-1.18 2.32-.79 3.06-.57.38-1.83-.57-3.53-1.12-3.88-2.49-1.37-3.72.68-3.72.68l.85-2.57c2.98-.74 4.26 1.48 4.56 2.38 3.17 1.2 4.51 3.01 5.28 3.91s1.91.49 2.3-.44c.32-.79.58-3.97.62-4.37 1.5.02 2.59-.68 3.02-2.03 1.01-4.1.46-9.44.46-9.44z" fill="#fff"/><path d="m128.82 152.71c3.68-5.19 6.93-11.66 9.27-19.74 0 0-3.05 8.65-11.06 17.88.66.56 1.25 1.18 1.79 1.86z" fill="none"/><path d="m113.68 148.68c8.62-10.81 10.21-19.45 10.51-21.55-18.49 4.67-17.14 7.83-18.33 15.13-.99 7.06.31 11.14 1 12.73 1.42-2.85 3.84-5.1 6.81-6.31z" fill="#fff"/><path d="m128.31 160.79c0-5.38-4.36-9.75-9.75-9.75-4.16 0-7.72 2.61-9.11 6.29 5.41.77 11.32 2.94 17.88 7.73.63-1.29.98-2.74.98-4.27z" fill="#fff"/><path d="m239.46 152.61c-5.47-10.29-14.78-18.14-25.95-21.54-.21-.06-.43-.13-.64-.19-.08-.02-.15-.04-.23-.06-1.03-.29-2.07-.54-3.13-.75-.26-.05-.53-.1-.79-.15-.23-.04-.46-.08-.69-.12-.09-.01-.18-.03-.27-.04-.4-.06-.8-.13-1.2-.18l-.17 2.95c.37.05.74.11 1.11.16s.09.02.13.02c.39.06.78.14 1.17.21.29.06.57.12.86.18.12.03.25.05.37.08 11.74 2.7 21.58 10.62 27.06 21.25s1.99 1.13 2.47-1.15c.05-.23.01-.47-.1-.68z" fill="#1369e0"/><path d="m84.66 143.85c-1.89-.63-3.82-1.46-5.58-2.75-2.83-2.07-6.08-5.97-5.55-12.8 0-.07.01-.14.02-.21.06-.51.15-1.03.27-1.54l-1.9 3.36-9.18-25.63-6.13 8.68-13.44-33.39 4.48 51.19 5.02-7.86 5.98 30.62 6.23-8.77 2.95 29.31c2.62-3.22 11.35-13.09 22.02-15.87l1.73-1.49-.84-1.8c-1.76-2.09-3.38-4.23-4.83-6.39-.93-1.38-1.35-3.02-1.23-4.65z" fill="#fede23"/><path d="m194.68 112.96-6.13-8.68-6.86 19.16c-.24 3.81-1.38 7.72-3.41 11.45-2.07 3.8-8.11 14.88-20.65 25.15l-1.28 2.65 1 .53c6.15-1.12 17.74-2.23 26.94 2.63l2.12-21.12 6.23 8.77 5.98-30.62 5.02 7.86 4.48-51.19-13.44 33.39z" fill="#fede23"/><path d="m169.62 112.27c-4.36-.9-4.5 2.49-5.47 8.93-3.32 15.85-13.63 25.53-22.35 32.45 7.4-7.68 14.18-17.02 18.75-29.2 4.57-12.11 1.59-15.08-2.49-16.75-4.91-2.14-10.31-1.73-10.86 1.19-1.18 6.51-1.25 6.7-3.87 11.34 5.05-17.85-5.05-18.68-10.73-19.47.76 8.07-3.87 10-3.87 10 1.66 15.32-3.31 27.57-10.33 36.98h.16c3.23 0 6.18 1.18 8.46 3.12 8.01-9.23 11.06-17.88 11.06-17.88-2.35 8.08-5.59 14.55-9.27 19.74 1.76 2.22 2.81 5.03 2.81 8.08 0 2.44-.67 4.72-1.84 6.68 26.83-9.87 38.06-28.79 42.05-36.1 5.47-10.03.97-18.2-2.21-19.1z" fill="#fff"/><path d="m237.27 177.35c-4.31-3.16-9.01-5.54-13.89-6.98-9.57-2.81-18.73-1.71-25.92 3.1-7.89-8.01-18.75-12.96-30.71-12.96s-21.86 4.52-29.64 11.91c-7.98-10.58-20.5-17.41-34.55-17.41-15.36 0-28.9 8.16-36.67 20.47-.02 0-.04-.02-.07-.03-2.78-.9-5.7-1.38-8.7-1.38-10.91 0-20.66 6.31-27.13 16.2-.59.8-1.17 1.62-1.72 2.47-.22.34-.26.76-.1 1.14.37.89 1.59 1.01 2.12.21.4-.6.81-1.18 1.23-1.76.57-.78 1.16-1.54 1.77-2.27 3.76-5.03 8.49-8.88 13.81-11.05 3.16-1.29 6.53-1.99 10.02-1.99 2.49 0 4.92.36 7.25 1.03-1.37 2.45-2.49 4.99-3.36 7.58-.07.2-.09.41-.07.61.04.39.23.77.55 1.02l.03.02c.79.61 1.96.27 2.27-.67.84-2.5 1.93-4.94 3.26-7.29.38-.68.78-1.35 1.2-2.01l-.02-.02c7.23-11.61 19.91-19.33 34.33-19.33 13.24 0 25.03 6.51 32.46 16.58-6 6.5-10.11 14.84-11.44 24.09-3.14.44-6.08 1.82-8.65 3.92-.6.49-.33 1.68.38 1.68.13 0 .26-.05.37-.14 2.29-1.87 4.89-3.12 7.67-3.59.8-.13 1.62-.21 2.45-.21.18 0 .36 0 .54.01 3.5.13 6.77 1.49 9.57 3.78.11.09.24.14.37.14.7 0 .97-1.2.38-1.68-2.95-2.41-6.4-3.87-10.08-4.06 1.28-8.19 4.9-15.59 10.14-21.46.68-.76 1.38-1.49 2.1-2.19 7.29-7.06 17.12-11.39 27.92-11.39s21 4.5 28.33 11.8c-6.34 5.34-9.97 13.43-10.29 23-.03.82-.02 1.65 0 2.48 0 .82 0 1.64.04 2.46s.75 1.46 1.57 1.4c.8-.05 1.41-.74 1.37-1.54-.02-.44-.03-.88-.04-1.31 0-.34 0-.67 0-1.01-.02-.79-.03-1.59 0-2.38.14-4.27 1-8.21 2.51-11.68 1.59-3.66 3.89-6.8 6.85-9.26.41-.35.84-.68 1.28-1 .36-.26.73-.51 1.11-.75 4.01-2.56 8.7-3.87 13.73-3.87 3.01 0 6.14.47 9.33 1.4 4.56 1.34 8.95 3.56 12.98 6.53.77.57 1.87.27 2.24-.62.26-.63.05-1.36-.5-1.76z" fill="#1369e0"/></svg>